<svg width="83" height="61" viewBox="0 0 83 61" fill="none" xmlns="http://www.w3.org/2000/svg">
<g clip-path="url(#clip0)">
<path d="M4.95996 50.1776C5.26074 50.1776 5.52279 50.1912 5.74609 50.2186C5.97396 50.2459 6.18587 50.2846 6.38184 50.3348C6.58236 50.3804 6.7806 50.435 6.97656 50.4988C7.17253 50.5626 7.39128 50.6333 7.63281 50.7108L7.60547 51.4285C7.43229 51.3693 7.25684 51.3123 7.0791 51.2576C6.90137 51.2029 6.71452 51.1551 6.51855 51.1141C6.32715 51.0731 6.12207 51.0412 5.90332 51.0184C5.68457 50.991 5.44987 50.9774 5.19922 50.9774C5.08529 50.9774 4.95312 50.9956 4.80273 51.032C4.65234 51.0685 4.50879 51.13 4.37207 51.2166C4.23535 51.3032 4.11914 51.4171 4.02344 51.5584C3.92773 51.6997 3.87988 51.8751 3.87988 52.0848C3.87988 52.2807 3.95736 52.5109 4.1123 52.7752C4.26725 53.035 4.52702 53.3608 4.8916 53.7527L6.09473 55.0516C6.35905 55.325 6.61198 55.5962 6.85352 55.8651C7.09961 56.1294 7.3138 56.3914 7.49609 56.6512C7.67839 56.9064 7.82422 57.1616 7.93359 57.4168C8.04297 57.6675 8.09766 57.9158 8.09766 58.1619C8.09766 58.6404 8.00879 59.0483 7.83105 59.3856C7.65788 59.7182 7.43001 59.9894 7.14746 60.199C6.86947 60.4041 6.55273 60.5545 6.19727 60.6502C5.8418 60.7459 5.48633 60.7938 5.13086 60.7938C4.82096 60.7938 4.53158 60.7755 4.2627 60.7391C3.99382 60.7072 3.73633 60.657 3.49023 60.5887C3.2487 60.5249 3.01628 60.4451 2.79297 60.3494C2.56966 60.2492 2.34863 60.1352 2.12988 60.0076L2.21875 59.2693C2.39648 59.3514 2.57878 59.4357 2.76562 59.5223C2.95247 59.6043 3.1416 59.6795 3.33301 59.7479C3.52897 59.8117 3.72721 59.8641 3.92773 59.9051C4.12826 59.9461 4.32878 59.9666 4.5293 59.9666C5.19922 59.9666 5.70508 59.8299 6.04688 59.5565C6.38867 59.2785 6.55957 58.8774 6.55957 58.3533C6.55957 58.1938 6.52311 58.032 6.4502 57.868C6.38184 57.7039 6.28613 57.5353 6.16309 57.3621C6.04004 57.1844 5.89421 57.0021 5.72559 56.8152C5.56152 56.6284 5.38607 56.4324 5.19922 56.2274L3.98242 54.9012C3.67253 54.5229 3.41276 54.1994 3.20312 53.9305C2.99349 53.6616 2.82487 53.4223 2.69727 53.2127C2.57422 53.0031 2.48535 52.8117 2.43066 52.6385C2.38053 52.4608 2.35547 52.2762 2.35547 52.0848C2.35547 51.7156 2.43066 51.4103 2.58105 51.1688C2.73145 50.9227 2.92969 50.7267 3.17578 50.5809C3.42188 50.435 3.69987 50.3325 4.00977 50.2733C4.31966 50.2095 4.63639 50.1776 4.95996 50.1776ZM18.4571 50.1776C19.2501 50.1776 19.9838 50.3074 20.6583 50.5672C21.3373 50.8224 21.9389 51.1779 22.463 51.6336L22.0802 52.1395C21.8705 51.9617 21.6381 51.7954 21.3829 51.6404C21.1277 51.4855 20.8588 51.3533 20.5763 51.244C20.2937 51.13 19.9998 51.0412 19.6944 50.9774C19.3891 50.909 19.0815 50.8748 18.7716 50.8748C18.1062 50.8748 17.516 50.9956 17.0011 51.2371C16.4861 51.4787 16.0531 51.8091 15.7022 52.2283C15.3513 52.6476 15.0847 53.1375 14.9024 53.6981C14.7201 54.2586 14.629 54.8602 14.629 55.5027C14.629 56.1317 14.7179 56.7241 14.8956 57.2801C15.0779 57.8361 15.3422 58.3237 15.6886 58.743C16.0395 59.1623 16.4724 59.4949 16.9874 59.741C17.5024 59.9826 18.0925 60.1033 18.7579 60.1033C19.0769 60.1033 19.4005 60.0714 19.7286 60.0076C20.0567 59.9438 20.3735 59.8504 20.6788 59.7274C20.9841 59.6043 21.2712 59.4539 21.5401 59.2762C21.8136 59.0984 22.0551 58.8957 22.2647 58.6678L22.6544 59.1668C22.1166 59.6772 21.4923 60.076 20.7813 60.3631C20.0704 60.6502 19.2957 60.7938 18.4571 60.7938C17.9513 60.7938 17.4659 60.73 17.0011 60.6024C16.5362 60.4793 16.101 60.3016 15.6954 60.0692C15.2943 59.8367 14.9275 59.561 14.5948 59.242C14.2667 58.9184 13.9841 58.5607 13.7471 58.1688C13.5147 57.7768 13.3324 57.3576 13.2003 56.9109C13.0727 56.4598 13.0089 55.9904 13.0089 55.5027C13.0089 55.0151 13.0727 54.5434 13.2003 54.0877C13.3324 53.632 13.5147 53.2082 13.7471 52.8162C13.9841 52.4197 14.2667 52.0597 14.5948 51.7361C14.9275 51.4126 15.2943 51.1369 15.6954 50.909C16.101 50.6766 16.5362 50.4966 17.0011 50.369C17.4659 50.2414 17.9513 50.1776 18.4571 50.1776ZM29.7599 60.5545H28.256V50.3895H29.7599V60.5545ZM42.4709 50.3895V51.0594H37.7473V54.1424H42.3274V54.8123H37.7473V59.8846H42.4709V60.5545H36.2502V50.3895H42.4709ZM56.0159 60.5545H54.8675L49.2347 52.659V60.5545H48.5374V51.6815L47.6282 50.3895H49.4603L55.3118 58.6063V50.3895H56.0159V60.5545ZM67.1547 50.1776C67.9477 50.1776 68.6814 50.3074 69.3559 50.5672C70.0349 50.8224 70.6365 51.1779 71.1605 51.6336L70.7777 52.1395C70.5681 51.9617 70.3357 51.7954 70.0805 51.6404C69.8253 51.4855 69.5564 51.3533 69.2738 51.244C68.9913 51.13 68.6973 51.0412 68.392 50.9774C68.0867 50.909 67.779 50.8748 67.4691 50.8748C66.8038 50.8748 66.2136 50.9956 65.6986 51.2371C65.1837 51.4787 64.7507 51.8091 64.3998 52.2283C64.0489 52.6476 63.7823 53.1375 63.6 53.6981C63.4177 54.2586 63.3266 54.8602 63.3266 55.5027C63.3266 56.1317 63.4154 56.7241 63.5932 57.2801C63.7755 57.8361 64.0398 58.3237 64.3861 58.743C64.737 59.1623 65.17 59.4949 65.685 59.741C66.1999 59.9826 66.7901 60.1033 67.4555 60.1033C67.7745 60.1033 68.098 60.0714 68.4262 60.0076C68.7543 59.9438 69.071 59.8504 69.3764 59.7274C69.6817 59.6043 69.9688 59.4539 70.2377 59.2762C70.5111 59.0984 70.7527 58.8957 70.9623 58.6678L71.352 59.1668C70.8142 59.6772 70.1898 60.076 69.4789 60.3631C68.768 60.6502 67.9932 60.7938 67.1547 60.7938C66.6488 60.7938 66.1635 60.73 65.6986 60.6024C65.2338 60.4793 64.7986 60.3016 64.393 60.0692C63.9919 59.8367 63.6251 59.561 63.2924 59.242C62.9643 58.9184 62.6817 58.5607 62.4447 58.1688C62.2123 57.7768 62.03 57.3576 61.8979 56.9109C61.7702 56.4598 61.7064 55.9904 61.7064 55.5027C61.7064 55.0151 61.7702 54.5434 61.8979 54.0877C62.03 53.632 62.2123 53.2082 62.4447 52.8162C62.6817 52.4197 62.9643 52.0597 63.2924 51.7361C63.6251 51.4126 63.9919 51.1369 64.393 50.909C64.7986 50.6766 65.2338 50.4966 65.6986 50.369C66.1635 50.2414 66.6488 50.1776 67.1547 50.1776ZM83.1743 50.3895V51.0594H78.4507V54.1424H83.0307V54.8123H78.4507V59.8846H83.1743V60.5545H76.9536V50.3895H83.1743Z" fill="white"/>
<path d="M8.42969 45.5545H3.29688V17.1483L0.0859375 17.7108V15.5076L6.88281 13.7733H8.42969V45.5545ZM25.1256 13.2576C26.5787 13.2576 27.8834 13.4998 29.0397 13.9842C30.2116 14.4529 31.235 15.1014 32.11 15.9295C33.0006 16.742 33.7584 17.6951 34.3834 18.7889C35.0241 19.867 35.5475 21.0154 35.9537 22.2342C36.36 23.4529 36.6569 24.7029 36.8444 25.9842C37.0319 27.2654 37.1256 28.5076 37.1256 29.7108C37.1256 30.9139 37.0319 32.1561 36.8444 33.4373C36.6569 34.7186 36.36 35.9764 35.9537 37.2108C35.5475 38.4295 35.0241 39.5858 34.3834 40.6795C33.7584 41.7733 33.0006 42.7342 32.11 43.5623C31.235 44.3748 30.2116 45.0233 29.0397 45.5076C27.8834 45.992 26.5787 46.2342 25.1256 46.2342C23.6725 46.2342 22.3678 45.992 21.2116 45.5076C20.0553 45.0233 19.0319 44.3748 18.1412 43.5623C17.2506 42.7342 16.485 41.7733 15.8444 40.6795C15.2194 39.5858 14.7037 38.4295 14.2975 37.2108C13.8912 35.9764 13.5944 34.7186 13.4069 33.4373C13.2194 32.1561 13.1256 30.9139 13.1256 29.7108C13.1256 28.5076 13.2194 27.2654 13.4069 25.9842C13.5944 24.7029 13.8912 23.4529 14.2975 22.2342C14.7037 21.0154 15.2194 19.867 15.8444 18.7889C16.485 17.6951 17.2506 16.742 18.1412 15.9295C19.0319 15.1014 20.0553 14.4529 21.2116 13.9842C22.3678 13.4998 23.6725 13.2576 25.1256 13.2576ZM25.1256 44.0779C26.2194 44.0779 27.1412 43.8436 27.8912 43.3748C28.6569 42.9061 29.2975 42.2889 29.8131 41.5233C30.3287 40.742 30.7272 39.8592 31.0084 38.8748C31.3053 37.8748 31.5241 36.8436 31.6647 35.7811C31.8053 34.7186 31.8912 33.6639 31.9225 32.617C31.9694 31.5701 31.9928 30.617 31.9928 29.7576C31.9928 28.8826 31.9694 27.9217 31.9225 26.8748C31.8912 25.8123 31.8053 24.7498 31.6647 23.6873C31.5241 22.6248 31.3053 21.6014 31.0084 20.617C30.7272 19.617 30.3287 18.7342 29.8131 17.9686C29.2975 17.1873 28.6569 16.5701 27.8912 16.117C27.1412 15.6483 26.2194 15.4139 25.1256 15.4139C24.0319 15.4139 23.1022 15.6483 22.3366 16.117C21.5866 16.5701 20.9537 17.1873 20.4381 17.9686C19.9381 18.7342 19.5397 19.617 19.2428 20.617C18.9616 21.6014 18.7506 22.6248 18.61 23.6873C18.4694 24.7498 18.3756 25.8123 18.3287 26.8748C18.2975 27.9217 18.2819 28.8826 18.2819 29.7576C18.2819 30.617 18.2975 31.5701 18.3287 32.617C18.3756 33.6639 18.4694 34.7186 18.61 35.7811C18.7506 36.8436 18.9616 37.8748 19.2428 38.8748C19.5397 39.8592 19.9381 40.742 20.4381 41.5233C20.9537 42.2889 21.5866 42.9061 22.3366 43.3748C23.1022 43.8436 24.0319 44.0779 25.1256 44.0779ZM49.3684 32.4998L57.5013 45.5545H52.4388L46.7903 36.4842L41.0716 45.5545H38.5638L45.5481 34.492L38.7044 23.4764H43.7669L48.1263 30.4842L52.5559 23.4764H55.0403L49.3684 32.4998Z" fill="white"/>
<rect x="60.3608" y="41.5" width="9" height="4" fill="white" stroke="white"/>
<rect x="73.3608" y="0.5" width="9" height="45" fill="white" stroke="white"/>
</g>
<defs>
<clipPath id="clip0">
<rect width="83" height="61" fill="white"/>
</clipPath>
</defs>
</svg>
